{
	"asset":{
		"generator":"Khronos glTF Blender I/O v4.4.55",
		"version":"2.0"
	},
	"extensionsUsed":[
		"KHR_materials_specular",
		"KHR_materials_ior"
	],
	"scene":0,
	"scenes":[
		{
			"name":"Scene",
			"nodes":[
				0
			]
		}
	],
	"nodes":[
		{
			"mesh":0,
			"name":"quadeca character.001",
			"rotation":[
				0.7071068286895752,
				0,
				0,
				0.7071068286895752
			]
		}
	],
	"materials":[
		{
			"doubleSided":true,
			"extensions":{
				"KHR_materials_specular":{
					"specularFactor":0
				},
				"KHR_materials_ior":{
					"ior":1
				}
			},
			"name":"mtl15.001",
			"pbrMetallicRoughness":{
				"baseColorTexture":{
					"index":0
				},
				"metallicFactor":0,
				"roughnessFactor":0.696426510810852
			}
		},
		{
			"doubleSided":true,
			"extensions":{
				"KHR_materials_specular":{
					"specularFactor":0
				},
				"KHR_materials_ior":{
					"ior":1
				}
			},
			"name":"mtl15",
			"pbrMetallicRoughness":{
				"baseColorTexture":{
					"index":1
				},
				"metallicFactor":0,
				"roughnessFactor":0.696426510810852
			}
		}
	],
	"meshes":[
		{
			"name":"group0.003",
			"primitives":[
				{
					"attributes":{
						"POSITION":0,
						"NORMAL":1,
						"TEXCOORD_0":2
					},
					"indices":3,
					"material":0
				},
				{
					"attributes":{
						"POSITION":4,
						"NORMAL":5,
						"TEXCOORD_0":6
					},
					"indices":7,
					"material":1
				}
			]
		}
	],
	"textures":[
		{
			"sampler":0,
			"source":0
		},
		{
			"sampler":0,
			"source":0
		}
	],
	"images":[
		{
			"mimeType":"image/jpeg",
			"name":"quad_skin",
			"uri":"quadeca_textures/quad_skin.jpg"
		}
	],
	"accessors":[
		{
			"bufferView":0,
			"componentType":5126,
			"count":358,
			"max":[
				1.1431477069854736,
				1.109997034072876,
				4.739999771118164
			],
			"min":[
				-1.1483913660049438,
				-0.9300029873847961,
				-2.2799999713897705
			],
			"type":"VEC3"
		},
		{
			"bufferView":1,
			"componentType":5126,
			"count":358,
			"type":"VEC3"
		},
		{
			"bufferView":2,
			"componentType":5126,
			"count":358,
			"type":"VEC2"
		},
		{
			"bufferView":3,
			"componentType":5123,
			"count":996,
			"type":"SCALAR"
		},
		{
			"bufferView":4,
			"componentType":5126,
			"count":6705,
			"max":[
				0.8418211936950684,
				0.8074497580528259,
				-1.7256790399551392
			],
			"min":[
				-0.9083057641983032,
				-1.0986322164535522,
				-3.692366123199463
			],
			"type":"VEC3"
		},
		{
			"bufferView":5,
			"componentType":5126,
			"count":6705,
			"type":"VEC3"
		},
		{
			"bufferView":6,
			"componentType":5126,
			"count":6705,
			"type":"VEC2"
		},
		{
			"bufferView":7,
			"componentType":5123,
			"count":14526,
			"type":"SCALAR"
		}
	],
	"bufferViews":[
		{
			"buffer":0,
			"byteLength":4296,
			"byteOffset":0,
			"target":34962
		},
		{
			"buffer":0,
			"byteLength":4296,
			"byteOffset":4296,
			"target":34962
		},
		{
			"buffer":0,
			"byteLength":2864,
			"byteOffset":8592,
			"target":34962
		},
		{
			"buffer":0,
			"byteLength":1992,
			"byteOffset":11456,
			"target":34963
		},
		{
			"buffer":0,
			"byteLength":80460,
			"byteOffset":13448,
			"target":34962
		},
		{
			"buffer":0,
			"byteLength":80460,
			"byteOffset":93908,
			"target":34962
		},
		{
			"buffer":0,
			"byteLength":53640,
			"byteOffset":174368,
			"target":34962
		},
		{
			"buffer":0,
			"byteLength":29052,
			"byteOffset":228008,
			"target":34963
		}
	],
	"samplers":[
		{
			"magFilter":9729,
			"minFilter":9987
		}
	],
	"buffers":[
		{
			"byteLength":257060,
			"uri":"scene.bin"
		}
	]
}
